<?xml version="1.0" encoding="utf-8"?>
<!-- Generator: Adobe Illustrator 18.0.0, SVG Export Plug-In . SVG Version: 6.00 Build 0)  -->
<!DOCTYPE svg PUBLIC "-//W3C//DTD SVG 1.1//EN" "http://www.w3.org/Graphics/SVG/1.1/DTD/svg11.dtd">
<svg version="1.1" id="_x5716__x5C64__1" xmlns="http://www.w3.org/2000/svg" xmlns:xlink="http://www.w3.org/1999/xlink" x="0px"
	 y="0px" viewBox="0 0 100 100" enable-background="new 0 0 100 100" xml:space="preserve">
<g>
	<g>
		<path fill="#FFFFFF" d="M26.3,91.2c0,0-0.1-0.1-0.1-0.2v-8c0-0.1,0-0.1,0.1-0.2c0,0,0.1-0.1,0.2-0.1h0.9c0.1,0,0.1,0,0.2,0.1
			c0,0,0.1,0.1,0.1,0.2v4.2H28l2-2.1c0.1-0.1,0.2-0.1,0.3-0.1h1c0.1,0,0.1,0,0.2,0.1c0,0,0.1,0.1,0.1,0.2c0,0.1,0,0.1-0.1,0.2
			L29,87.8l2.5,3.2c0,0.1,0.1,0.1,0.1,0.1c0,0.1,0,0.1-0.1,0.1c0,0-0.1,0.1-0.2,0.1h-1c-0.1,0-0.3-0.1-0.3-0.2L28,88.4h-0.4V91
			c0,0.1,0,0.1-0.1,0.2c0,0-0.1,0.1-0.2,0.1h-0.9C26.4,91.3,26.4,91.2,26.3,91.2z"/>
		<path fill="#FFFFFF" d="M32.8,91.2c0,0-0.1-0.1-0.1-0.2v-5.9c0-0.1,0-0.1,0.1-0.2c0,0,0.1-0.1,0.2-0.1h0.9c0.1,0,0.1,0,0.2,0.1
			c0,0,0.1,0.1,0.1,0.2v0.5c0.2-0.3,0.5-0.5,0.7-0.7c0.3-0.2,0.6-0.2,0.9-0.2c0.4,0,0.8,0.1,1.1,0.3c0.3,0.2,0.6,0.5,0.8,0.8
			c0.2,0.4,0.3,0.8,0.3,1.2V91c0,0.1,0,0.1-0.1,0.2c0,0-0.1,0.1-0.2,0.1h-0.9c-0.1,0-0.1,0-0.2-0.1c0,0-0.1-0.1-0.1-0.2v-3.8
			c0-0.4-0.1-0.7-0.3-0.9c-0.2-0.2-0.5-0.3-0.8-0.3c-0.4,0-0.8,0.1-1,0.4c-0.3,0.3-0.4,0.7-0.4,1.2V91c0,0.1,0,0.1-0.1,0.2
			c0,0-0.1,0.1-0.2,0.1H33C32.9,91.3,32.9,91.2,32.8,91.2z"/>
		<path fill="#FFFFFF" d="M40.8,91c-0.4-0.2-0.7-0.6-1-0.9c-0.2-0.4-0.4-0.8-0.4-1.3v-1.5c0-0.5,0.1-0.9,0.4-1.3
			c0.2-0.4,0.6-0.7,1-0.9c0.4-0.2,0.8-0.4,1.3-0.4s0.9,0.1,1.3,0.4c0.4,0.2,0.7,0.6,1,0.9c0.2,0.4,0.4,0.8,0.4,1.3v1.5
			c0,0.5-0.1,0.9-0.4,1.3c-0.2,0.4-0.6,0.7-1,0.9c-0.4,0.2-0.8,0.4-1.3,0.4S41.2,91.3,40.8,91z M43,89.7c0.3-0.3,0.4-0.6,0.4-0.9
			v-1.5c0-0.4-0.1-0.7-0.4-0.9c-0.3-0.3-0.6-0.4-0.9-0.4c-0.4,0-0.7,0.1-0.9,0.4c-0.3,0.3-0.4,0.6-0.4,0.9v1.5
			c0,0.4,0.1,0.7,0.4,0.9c0.3,0.3,0.6,0.4,0.9,0.4C42.4,90.1,42.8,90,43,89.7z"/>
		<path fill="#FFFFFF" d="M47.4,91c-0.4-0.2-0.7-0.6-1-1s-0.4-0.9-0.4-1.3v-1.3c0-0.5,0.1-0.9,0.4-1.3c0.2-0.4,0.6-0.7,1-1
			c0.4-0.2,0.8-0.4,1.3-0.4c0.4,0,0.7,0.1,1.1,0.2c0.3,0.2,0.6,0.4,0.9,0.6c0.1,0.1,0.1,0.1,0.1,0.2c0,0.1,0,0.2-0.1,0.2l-0.5,0.5
			c-0.1,0.1-0.1,0.1-0.2,0.1c-0.1,0-0.1,0-0.2-0.1c-0.3-0.3-0.6-0.4-1.1-0.4c-0.4,0-0.7,0.1-0.9,0.4c-0.3,0.3-0.4,0.6-0.4,0.9v1.5
			c0,0.4,0.1,0.7,0.4,0.9c0.3,0.3,0.6,0.4,0.9,0.4c0.4,0,0.8-0.1,1.1-0.4c0.1-0.1,0.1-0.1,0.2-0.1c0.1,0,0.1,0,0.2,0.1l0.5,0.5
			c0.1,0.1,0.1,0.1,0.1,0.2c0,0.1,0,0.1-0.1,0.2c-0.2,0.3-0.5,0.5-0.9,0.6c-0.3,0.2-0.7,0.2-1.1,0.2C48.2,91.4,47.8,91.3,47.4,91z"
			/>
		<path fill="#FFFFFF" d="M52.2,91.2c0,0-0.1-0.1-0.1-0.2v-8c0-0.1,0-0.1,0.1-0.2c0,0,0.1-0.1,0.2-0.1h0.9c0.1,0,0.1,0,0.2,0.1
			s0.1,0.1,0.1,0.2v4.2h0.4l2-2.1c0.1-0.1,0.2-0.1,0.3-0.1h1c0.1,0,0.1,0,0.2,0.1c0,0,0.1,0.1,0.1,0.2c0,0.1,0,0.1-0.1,0.2L55,87.8
			l2.5,3.2c0,0.1,0.1,0.1,0.1,0.1c0,0.1,0,0.1-0.1,0.1c0,0-0.1,0.1-0.2,0.1h-1c-0.1,0-0.3-0.1-0.3-0.2l-2.1-2.7h-0.4V91
			c0,0.1,0,0.1-0.1,0.2c0,0-0.1,0.1-0.2,0.1h-0.9C52.3,91.3,52.3,91.2,52.2,91.2z"/>
		<path fill="#FFFFFF" d="M58.7,91.2c0,0-0.1-0.1-0.1-0.2v-8c0-0.1,0-0.1,0.1-0.2c0,0,0.1-0.1,0.2-0.1h0.9c0.1,0,0.1,0,0.2,0.1
			c0,0,0.1,0.1,0.1,0.2v4.2h0.4l2-2.1c0.1-0.1,0.2-0.1,0.3-0.1h1c0.1,0,0.1,0,0.2,0.1c0,0,0.1,0.1,0.1,0.2c0,0.1,0,0.1-0.1,0.2
			l-2.4,2.5l2.5,3.2C64,91,64,91,64,91.1c0,0.1,0,0.1-0.1,0.1c0,0-0.1,0.1-0.2,0.1h-1c-0.1,0-0.3-0.1-0.3-0.2l-2.1-2.7H60V91
			c0,0.1,0,0.1-0.1,0.2c0,0-0.1,0.1-0.2,0.1h-0.9C58.8,91.3,58.8,91.2,58.7,91.2z"/>
		<path fill="#FFFFFF" d="M65.2,91.2c0,0-0.1-0.1-0.1-0.2v-8c0-0.1,0-0.1,0.1-0.2s0.1-0.1,0.2-0.1h0.9c0.1,0,0.1,0,0.2,0.1
			s0.1,0.1,0.1,0.2v4.2h0.4l2-2.1c0.1-0.1,0.2-0.1,0.3-0.1h1c0.1,0,0.1,0,0.2,0.1c0,0,0.1,0.1,0.1,0.2c0,0.1,0,0.1-0.1,0.2L68,87.8
			l2.5,3.2c0,0.1,0.1,0.1,0.1,0.1c0,0.1,0,0.1-0.1,0.1c0,0-0.1,0.1-0.2,0.1h-1c-0.1,0-0.3-0.1-0.3-0.2l-2.1-2.7h-0.4V91
			c0,0.1,0,0.1-0.1,0.2c0,0-0.1,0.1-0.2,0.1h-0.9C65.3,91.3,65.3,91.2,65.2,91.2z"/>
		<path fill="#FFFFFF" d="M71.7,91.2c0,0-0.1-0.1-0.1-0.2v-8c0-0.1,0-0.1,0.1-0.2c0,0,0.1-0.1,0.2-0.1h0.9c0.1,0,0.1,0,0.2,0.1
			c0,0,0.1,0.1,0.1,0.2v4.2h0.4l2-2.1c0.1-0.1,0.2-0.1,0.3-0.1h1c0.1,0,0.1,0,0.2,0.1c0,0,0.1,0.1,0.1,0.2c0,0.1,0,0.1-0.1,0.2
			l-2.4,2.5l2.5,3.2C77,91,77,91,77,91.1c0,0.1,0,0.1-0.1,0.1c0,0-0.1,0.1-0.2,0.1h-1c-0.1,0-0.3-0.1-0.3-0.2l-2.1-2.7H73V91
			c0,0.1,0,0.1-0.1,0.2c0,0-0.1,0.1-0.2,0.1h-0.9C71.8,91.3,71.8,91.2,71.7,91.2z"/>
	</g>
	<path fill="#FFFFFF" d="M68.3,25.6c-0.1-1.3-0.2-2.6-0.5-3.9c-0.3-1.3-0.8-2.7-1.4-4c-0.7-1.3-1.6-2.5-2.8-3.6
		c-1.2-1.1-2.7-1.9-4.5-2.5c-1.8-0.6-4.1-1-6.7-1c-1.8,0-3.5,0.2-5.2,0.7c-1.7,0.5-3.3,1.2-4.7,2.1c-1.4,0.9-2.7,2.1-3.8,3.4
		c-0.2,0.3-1.7,1.9-2.6,2.8c-0.9,0.6-1.8,1.4-2.5,2.2v-1.3h0v-5.2L30.3,14v11.5v3.4v30.2l3.3,1.3V38.6h0v-12c0,0,0.1,0,0.1-0.1
		c2-0.9,4.3-1.4,6.8-1.4c3,0,5.4,0.6,7.2,1.7c1.7,1.1,3,2.4,3.9,4c0.8,1.6,1.4,3.2,1.5,4.9c0.2,1.7,0.3,3.1,0.3,4.2v28.5l3.3,1.3
		V40.5c0-0.9,0-2-0.1-3.3c-0.1-1.3-0.2-2.6-0.5-3.9c-0.3-1.3-0.8-2.7-1.4-4c-0.7-1.3-1.6-2.5-2.8-3.6c-1.2-1.1-2.7-1.9-4.5-2.5
		c-1.8-0.6-4.1-1-6.7-1c-1,0-1.9,0.1-2.8,0.2c0.2-0.4,0.5-0.8,0.8-1.2c0.3-0.2,0.7-0.4,1-0.5c2-0.9,4.3-1.4,6.8-1.4
		c3,0,5.4,0.6,7.2,1.7c1.7,1.1,3,2.4,3.9,4c0.8,1.6,1.4,3.2,1.5,4.9c0.2,1.7,0.3,3.1,0.3,4.2v28.5l3.3,1.3V34.7c0-0.9,0-2-0.1-3.3
		c-0.1-1.3-0.2-2.6-0.5-3.9c-0.3-1.3-0.8-2.7-1.4-4c-0.7-1.3-1.6-2.5-2.8-3.6c-1.2-1.1-2.7-1.9-4.5-2.5c-1.8-0.6-4.1-1-6.7-1
		c-1.5,0-2.9,0.2-4.3,0.5c1-0.8,2-1.5,3.2-2c2-0.9,4.3-1.4,6.8-1.4c3,0,5.4,0.6,7.2,1.7c1.7,1.1,3,2.4,3.9,4
		c0.8,1.6,1.4,3.2,1.5,4.9c0.2,1.7,0.3,3.1,0.3,4.2v28.5l3.3,1.3V28.9C68.4,27.9,68.4,26.8,68.3,25.6z"/>
	<circle fill="#FFFFFF" cx="37.8" cy="44.1" r="2"/>
</g>
</svg>
